<svg id="svgQrWrapper" viewBox="0 0 300 300" xmlns="http://www.w3.org/2000/svg" xmlns:xlink="http://www.w3.org/1999/xlink" width="300" height="300" style="width: 100%; height: 100%; background-color: rgb(255, 255, 255);"><svg><g transform="translate(9, 9)scale(0.95)" fill="none"><svg width="300" height="300"><style>.background-color{ fill: #fff; }.dot-color{ fill: #0061a5; }.corners-square-color-0-0{ fill: #0061a5; }.corners-dot-color-0-0{ fill: #0061a5; }.corners-square-color-1-0{ fill: #0061a5; }.corners-dot-color-1-0{ fill: #0061a5; }.corners-square-color-0-1{ fill: #0061a5; }.corners-dot-color-0-1{ fill: #0061a5; }</style><defs/><g class="dot-color"><circle cx="5.5" cy="86.5" r="4.5" transform="rotate(0,5.5,86.5)"/><circle cx="5.5" cy="95.5" r="4.5" transform="rotate(0,5.5,95.5)"/><circle cx="5.5" cy="122.5" r="4.5" transform="rotate(0,5.5,122.5)"/><circle cx="5.5" cy="131.5" r="4.5" transform="rotate(0,5.5,131.5)"/><circle cx="5.5" cy="149.5" r="4.5" transform="rotate(0,5.5,149.5)"/><circle cx="5.5" cy="167.5" r="4.5" transform="rotate(0,5.5,167.5)"/><circle cx="5.5" cy="185.5" r="4.5" transform="rotate(0,5.5,185.5)"/><circle cx="5.5" cy="194.5" r="4.5" transform="rotate(0,5.5,194.5)"/><circle cx="5.5" cy="212.5" r="4.5" transform="rotate(0,5.5,212.5)"/><circle cx="5.5" cy="221.5" r="4.5" transform="rotate(0,5.5,221.5)"/><circle cx="14.5" cy="95.5" r="4.5" transform="rotate(0,14.5,95.5)"/><circle cx="14.5" cy="104.5" r="4.5" transform="rotate(0,14.5,104.5)"/><circle cx="14.5" cy="113.5" r="4.5" transform="rotate(0,14.5,113.5)"/><circle cx="14.5" cy="131.5" r="4.5" transform="rotate(0,14.5,131.5)"/><circle cx="14.5" cy="140.5" r="4.5" transform="rotate(0,14.5,140.5)"/><circle cx="14.5" cy="158.5" r="4.5" transform="rotate(0,14.5,158.5)"/><circle cx="14.5" cy="167.5" r="4.5" transform="rotate(0,14.5,167.5)"/><circle cx="14.5" cy="176.5" r="4.5" transform="rotate(0,14.5,176.5)"/><circle cx="14.5" cy="185.5" r="4.5" transform="rotate(0,14.5,185.5)"/><circle cx="14.5" cy="212.5" r="4.5" transform="rotate(0,14.5,212.5)"/><circle cx="23.5" cy="104.5" r="4.5" transform="rotate(0,23.5,104.5)"/><circle cx="23.5" cy="113.5" r="4.5" transform="rotate(0,23.5,113.5)"/><circle cx="23.5" cy="122.5" r="4.5" transform="rotate(0,23.5,122.5)"/><circle cx="23.5" cy="176.5" r="4.5" transform="rotate(0,23.5,176.5)"/><circle cx="23.5" cy="212.5" r="4.5" transform="rotate(0,23.5,212.5)"/><circle cx="32.5" cy="86.5" r="4.5" transform="rotate(0,32.5,86.5)"/><circle cx="32.5" cy="95.5" r="4.5" transform="rotate(0,32.5,95.5)"/><circle cx="32.5" cy="131.5" r="4.5" transform="rotate(0,32.5,131.5)"/><circle cx="32.5" cy="140.5" r="4.5" transform="rotate(0,32.5,140.5)"/><circle cx="32.5" cy="149.5" r="4.5" transform="rotate(0,32.5,149.5)"/><circle cx="32.5" cy="158.5" r="4.5" transform="rotate(0,32.5,158.5)"/><circle cx="32.5" cy="176.5" r="4.5" transform="rotate(0,32.5,176.5)"/><circle cx="32.5" cy="203.5" r="4.5" transform="rotate(0,32.5,203.5)"/><circle cx="32.5" cy="212.5" r="4.5" transform="rotate(0,32.5,212.5)"/><circle cx="32.5" cy="221.5" r="4.5" transform="rotate(0,32.5,221.5)"/><circle cx="41.5" cy="77.5" r="4.5" transform="rotate(0,41.5,77.5)"/><circle cx="41.5" cy="95.5" r="4.5" transform="rotate(0,41.5,95.5)"/><circle cx="41.5" cy="122.5" r="4.5" transform="rotate(0,41.5,122.5)"/><circle cx="41.5" cy="140.5" r="4.5" transform="rotate(0,41.5,140.5)"/><circle cx="41.5" cy="158.5" r="4.5" transform="rotate(0,41.5,158.5)"/><circle cx="41.5" cy="176.5" r="4.5" transform="rotate(0,41.5,176.5)"/><circle cx="41.5" cy="185.5" r="4.5" transform="rotate(0,41.5,185.5)"/><circle cx="41.5" cy="203.5" r="4.5" transform="rotate(0,41.5,203.5)"/><circle cx="41.5" cy="212.5" r="4.5" transform="rotate(0,41.5,212.5)"/><circle cx="41.5" cy="221.5" r="4.5" transform="rotate(0,41.5,221.5)"/><circle cx="50.5" cy="95.5" r="4.5" transform="rotate(0,50.5,95.5)"/><circle cx="50.5" cy="122.5" r="4.5" transform="rotate(0,50.5,122.5)"/><circle cx="50.5" cy="131.5" r="4.5" transform="rotate(0,50.5,131.5)"/><circle cx="50.5" cy="140.5" r="4.5" transform="rotate(0,50.5,140.5)"/><circle cx="50.5" cy="158.5" r="4.5" transform="rotate(0,50.5,158.5)"/><circle cx="50.5" cy="176.5" r="4.5" transform="rotate(0,50.5,176.5)"/><circle cx="50.5" cy="212.5" r="4.5" transform="rotate(0,50.5,212.5)"/><circle cx="59.5" cy="77.5" r="4.5" transform="rotate(0,59.5,77.5)"/><circle cx="59.5" cy="95.5" r="4.5" transform="rotate(0,59.5,95.5)"/><circle cx="59.5" cy="113.5" r="4.5" transform="rotate(0,59.5,113.5)"/><circle cx="59.5" cy="131.5" r="4.5" transform="rotate(0,59.5,131.5)"/><circle cx="59.5" cy="149.5" r="4.5" transform="rotate(0,59.5,149.5)"/><circle cx="59.5" cy="167.5" r="4.5" transform="rotate(0,59.5,167.5)"/><circle cx="59.5" cy="185.5" r="4.5" transform="rotate(0,59.5,185.5)"/><circle cx="59.5" cy="203.5" r="4.5" transform="rotate(0,59.5,203.5)"/><circle cx="59.5" cy="221.5" r="4.5" transform="rotate(0,59.5,221.5)"/><circle cx="68.5" cy="77.5" r="4.5" transform="rotate(0,68.5,77.5)"/><circle cx="68.5" cy="86.5" r="4.5" transform="rotate(0,68.5,86.5)"/><circle cx="68.5" cy="95.5" r="4.5" transform="rotate(0,68.5,95.5)"/><circle cx="68.5" cy="122.5" r="4.5" transform="rotate(0,68.5,122.5)"/><circle cx="68.5" cy="131.5" r="4.5" transform="rotate(0,68.5,131.5)"/><circle cx="68.5" cy="149.5" r="4.5" transform="rotate(0,68.5,149.5)"/><circle cx="68.5" cy="167.5" r="4.5" transform="rotate(0,68.5,167.5)"/><circle cx="68.5" cy="176.5" r="4.5" transform="rotate(0,68.5,176.5)"/><circle cx="68.5" cy="185.5" r="4.5" transform="rotate(0,68.5,185.5)"/><circle cx="68.5" cy="221.5" r="4.5" transform="rotate(0,68.5,221.5)"/><circle cx="77.5" cy="23.5" r="4.5" transform="rotate(0,77.5,23.5)"/><circle cx="77.5" cy="32.5" r="4.5" transform="rotate(0,77.5,32.5)"/><circle cx="77.5" cy="59.5" r="4.5" transform="rotate(0,77.5,59.5)"/><circle cx="77.5" cy="68.5" r="4.5" transform="rotate(0,77.5,68.5)"/><circle cx="77.5" cy="77.5" r="4.5" transform="rotate(0,77.5,77.5)"/><circle cx="77.5" cy="86.5" r="4.5" transform="rotate(0,77.5,86.5)"/><circle cx="77.5" cy="95.5" r="4.5" transform="rotate(0,77.5,95.5)"/><circle cx="77.5" cy="104.5" r="4.5" transform="rotate(0,77.5,104.5)"/><circle cx="77.5" cy="113.5" r="4.5" transform="rotate(0,77.5,113.5)"/><circle cx="77.5" cy="131.5" r="4.5" transform="rotate(0,77.5,131.5)"/><circle cx="77.5" cy="149.5" r="4.5" transform="rotate(0,77.5,149.5)"/><circle cx="77.5" cy="158.5" r="4.5" transform="rotate(0,77.5,158.5)"/><circle cx="77.5" cy="176.5" r="4.5" transform="rotate(0,77.5,176.5)"/><circle cx="77.5" cy="185.5" r="4.5" transform="rotate(0,77.5,185.5)"/><circle cx="77.5" cy="194.5" r="4.5" transform="rotate(0,77.5,194.5)"/><circle cx="77.5" cy="212.5" r="4.5" transform="rotate(0,77.5,212.5)"/><circle cx="77.5" cy="221.5" r="4.5" transform="rotate(0,77.5,221.5)"/><circle cx="77.5" cy="230.5" r="4.5" transform="rotate(0,77.5,230.5)"/><circle cx="77.5" cy="239.5" r="4.5" transform="rotate(0,77.5,239.5)"/><circle cx="77.5" cy="257.5" r="4.5" transform="rotate(0,77.5,257.5)"/><circle cx="86.5" cy="5.5" r="4.5" transform="rotate(0,86.5,5.5)"/><circle cx="86.5" cy="14.5" r="4.5" transform="rotate(0,86.5,14.5)"/><circle cx="86.5" cy="23.5" r="4.5" transform="rotate(0,86.5,23.5)"/><circle cx="86.5" cy="32.5" r="4.5" transform="rotate(0,86.5,32.5)"/><circle cx="86.5" cy="50.5" r="4.5" transform="rotate(0,86.5,50.5)"/><circle cx="86.5" cy="86.5" r="4.5" transform="rotate(0,86.5,86.5)"/><circle cx="86.5" cy="95.5" r="4.5" transform="rotate(0,86.5,95.5)"/><circle cx="86.5" cy="131.5" r="4.5" transform="rotate(0,86.5,131.5)"/><circle cx="86.5" cy="149.5" r="4.5" transform="rotate(0,86.5,149.5)"/><circle cx="86.5" cy="167.5" r="4.5" transform="rotate(0,86.5,167.5)"/><circle cx="86.5" cy="185.5" r="4.5" transform="rotate(0,86.5,185.5)"/><circle cx="86.5" cy="194.5" r="4.5" transform="rotate(0,86.5,194.5)"/><circle cx="86.5" cy="230.5" r="4.5" transform="rotate(0,86.5,230.5)"/><circle cx="86.5" cy="239.5" r="4.5" transform="rotate(0,86.5,239.5)"/><circle cx="86.5" cy="275.5" r="4.5" transform="rotate(0,86.5,275.5)"/><circle cx="86.5" cy="284.5" r="4.5" transform="rotate(0,86.5,284.5)"/><circle cx="86.5" cy="293.5" r="4.5" transform="rotate(0,86.5,293.5)"/><circle cx="95.5" cy="5.5" r="4.5" transform="rotate(0,95.5,5.5)"/><circle cx="95.5" cy="14.5" r="4.5" transform="rotate(0,95.5,14.5)"/><circle cx="95.5" cy="32.5" r="4.5" transform="rotate(0,95.5,32.5)"/><circle cx="95.5" cy="59.5" r="4.5" transform="rotate(0,95.5,59.5)"/><circle cx="95.5" cy="113.5" r="4.5" transform="rotate(0,95.5,113.5)"/><circle cx="95.5" cy="131.5" r="4.5" transform="rotate(0,95.5,131.5)"/><circle cx="95.5" cy="149.5" r="4.5" transform="rotate(0,95.5,149.5)"/><circle cx="95.5" cy="158.5" r="4.5" transform="rotate(0,95.5,158.5)"/><circle cx="95.5" cy="176.5" r="4.5" transform="rotate(0,95.5,176.5)"/><circle cx="95.5" cy="212.5" r="4.5" transform="rotate(0,95.5,212.5)"/><circle cx="95.5" cy="230.5" r="4.5" transform="rotate(0,95.5,230.5)"/><circle cx="95.5" cy="275.5" r="4.5" transform="rotate(0,95.5,275.5)"/><circle cx="95.5" cy="284.5" r="4.5" transform="rotate(0,95.5,284.5)"/><circle cx="95.5" cy="293.5" r="4.5" transform="rotate(0,95.5,293.5)"/><circle cx="104.5" cy="14.5" r="4.5" transform="rotate(0,104.5,14.5)"/><circle cx="104.5" cy="23.5" r="4.5" transform="rotate(0,104.5,23.5)"/><circle cx="104.5" cy="41.5" r="4.5" transform="rotate(0,104.5,41.5)"/><circle cx="104.5" cy="68.5" r="4.5" transform="rotate(0,104.5,68.5)"/><circle cx="104.5" cy="113.5" r="4.5" transform="rotate(0,104.5,113.5)"/><circle cx="104.5" cy="122.5" r="4.5" transform="rotate(0,104.5,122.5)"/><circle cx="104.5" cy="131.5" r="4.5" transform="rotate(0,104.5,131.5)"/><circle cx="104.5" cy="140.5" r="4.5" transform="rotate(0,104.5,140.5)"/><circle cx="104.5" cy="149.5" r="4.5" transform="rotate(0,104.5,149.5)"/><circle cx="104.5" cy="158.5" r="4.5" transform="rotate(0,104.5,158.5)"/><circle cx="104.5" cy="167.5" r="4.5" transform="rotate(0,104.5,167.5)"/><circle cx="104.5" cy="176.5" r="4.5" transform="rotate(0,104.5,176.5)"/><circle cx="104.5" cy="185.5" r="4.5" transform="rotate(0,104.5,185.5)"/><circle cx="104.5" cy="221.5" r="4.5" transform="rotate(0,104.5,221.5)"/><circle cx="104.5" cy="248.5" r="4.5" transform="rotate(0,104.5,248.5)"/><circle cx="104.5" cy="257.5" r="4.5" transform="rotate(0,104.5,257.5)"/><circle cx="104.5" cy="266.5" r="4.5" transform="rotate(0,104.5,266.5)"/><circle cx="113.5" cy="23.5" r="4.5" transform="rotate(0,113.5,23.5)"/><circle cx="113.5" cy="32.5" r="4.5" transform="rotate(0,113.5,32.5)"/><circle cx="113.5" cy="41.5" r="4.5" transform="rotate(0,113.5,41.5)"/><circle cx="113.5" cy="59.5" r="4.5" transform="rotate(0,113.5,59.5)"/><circle cx="113.5" cy="131.5" r="4.5" transform="rotate(0,113.5,131.5)"/><circle cx="113.5" cy="140.5" r="4.5" transform="rotate(0,113.5,140.5)"/><circle cx="113.5" cy="158.5" r="4.5" transform="rotate(0,113.5,158.5)"/><circle cx="113.5" cy="167.5" r="4.5" transform="rotate(0,113.5,167.5)"/><circle cx="113.5" cy="194.5" r="4.5" transform="rotate(0,113.5,194.5)"/><circle cx="113.5" cy="212.5" r="4.5" transform="rotate(0,113.5,212.5)"/><circle cx="113.5" cy="230.5" r="4.5" transform="rotate(0,113.5,230.5)"/><circle cx="113.5" cy="248.5" r="4.5" transform="rotate(0,113.5,248.5)"/><circle cx="122.5" cy="5.5" r="4.5" transform="rotate(0,122.5,5.5)"/><circle cx="122.5" cy="23.5" r="4.5" transform="rotate(0,122.5,23.5)"/><circle cx="122.5" cy="32.5" r="4.5" transform="rotate(0,122.5,32.5)"/><circle cx="122.5" cy="41.5" r="4.5" transform="rotate(0,122.5,41.5)"/><circle cx="122.5" cy="50.5" r="4.5" transform="rotate(0,122.5,50.5)"/><circle cx="122.5" cy="68.5" r="4.5" transform="rotate(0,122.5,68.5)"/><circle cx="122.5" cy="77.5" r="4.5" transform="rotate(0,122.5,77.5)"/><circle cx="122.5" cy="113.5" r="4.5" transform="rotate(0,122.5,113.5)"/><circle cx="122.5" cy="122.5" r="4.5" transform="rotate(0,122.5,122.5)"/><circle cx="122.5" cy="149.5" r="4.5" transform="rotate(0,122.5,149.5)"/><circle cx="122.5" cy="167.5" r="4.5" transform="rotate(0,122.5,167.5)"/><circle cx="122.5" cy="176.5" r="4.5" transform="rotate(0,122.5,176.5)"/><circle cx="122.5" cy="185.5" r="4.5" transform="rotate(0,122.5,185.5)"/><circle cx="122.5" cy="194.5" r="4.5" transform="rotate(0,122.5,194.5)"/><circle cx="122.5" cy="203.5" r="4.5" transform="rotate(0,122.5,203.5)"/><circle cx="122.5" cy="221.5" r="4.5" transform="rotate(0,122.5,221.5)"/><circle cx="122.5" cy="266.5" r="4.5" transform="rotate(0,122.5,266.5)"/><circle cx="122.5" cy="275.5" r="4.5" transform="rotate(0,122.5,275.5)"/><circle cx="131.5" cy="5.5" r="4.5" transform="rotate(0,131.5,5.5)"/><circle cx="131.5" cy="14.5" r="4.5" transform="rotate(0,131.5,14.5)"/><circle cx="131.5" cy="23.5" r="4.5" transform="rotate(0,131.5,23.5)"/><circle cx="131.5" cy="59.5" r="4.5" transform="rotate(0,131.5,59.5)"/><circle cx="131.5" cy="86.5" r="4.5" transform="rotate(0,131.5,86.5)"/><circle cx="131.5" cy="104.5" r="4.5" transform="rotate(0,131.5,104.5)"/><circle cx="131.5" cy="113.5" r="4.5" transform="rotate(0,131.5,113.5)"/><circle cx="131.5" cy="185.5" r="4.5" transform="rotate(0,131.5,185.5)"/><circle cx="131.5" cy="194.5" r="4.5" transform="rotate(0,131.5,194.5)"/><circle cx="131.5" cy="221.5" r="4.5" transform="rotate(0,131.5,221.5)"/><circle cx="131.5" cy="239.5" r="4.5" transform="rotate(0,131.5,239.5)"/><circle cx="131.5" cy="257.5" r="4.5" transform="rotate(0,131.5,257.5)"/><circle cx="131.5" cy="266.5" r="4.5" transform="rotate(0,131.5,266.5)"/><circle cx="131.5" cy="275.5" r="4.5" transform="rotate(0,131.5,275.5)"/><circle cx="140.5" cy="23.5" r="4.5" transform="rotate(0,140.5,23.5)"/><circle cx="140.5" cy="32.5" r="4.5" transform="rotate(0,140.5,32.5)"/><circle cx="140.5" cy="68.5" r="4.5" transform="rotate(0,140.5,68.5)"/><circle cx="140.5" cy="77.5" r="4.5" transform="rotate(0,140.5,77.5)"/><circle cx="140.5" cy="86.5" r="4.5" transform="rotate(0,140.5,86.5)"/><circle cx="140.5" cy="95.5" r="4.5" transform="rotate(0,140.5,95.5)"/><circle cx="140.5" cy="104.5" r="4.5" transform="rotate(0,140.5,104.5)"/><circle cx="140.5" cy="113.5" r="4.5" transform="rotate(0,140.5,113.5)"/><circle cx="140.5" cy="122.5" r="4.5" transform="rotate(0,140.5,122.5)"/><circle cx="140.5" cy="149.5" r="4.5" transform="rotate(0,140.5,149.5)"/><circle cx="140.5" cy="158.5" r="4.5" transform="rotate(0,140.5,158.5)"/><circle cx="140.5" cy="176.5" r="4.5" transform="rotate(0,140.5,176.5)"/><circle cx="140.5" cy="185.5" r="4.5" transform="rotate(0,140.5,185.5)"/><circle cx="140.5" cy="194.5" r="4.5" transform="rotate(0,140.5,194.5)"/><circle cx="140.5" cy="203.5" r="4.5" transform="rotate(0,140.5,203.5)"/><circle cx="140.5" cy="230.5" r="4.5" transform="rotate(0,140.5,230.5)"/><circle cx="140.5" cy="239.5" r="4.5" transform="rotate(0,140.5,239.5)"/><circle cx="140.5" cy="257.5" r="4.5" transform="rotate(0,140.5,257.5)"/><circle cx="140.5" cy="266.5" r="4.5" transform="rotate(0,140.5,266.5)"/><circle cx="140.5" cy="275.5" r="4.5" transform="rotate(0,140.5,275.5)"/><circle cx="140.5" cy="284.5" r="4.5" transform="rotate(0,140.5,284.5)"/><circle cx="149.5" cy="5.5" r="4.5" transform="rotate(0,149.5,5.5)"/><circle cx="149.5" cy="23.5" r="4.5" transform="rotate(0,149.5,23.5)"/><circle cx="149.5" cy="41.5" r="4.5" transform="rotate(0,149.5,41.5)"/><circle cx="149.5" cy="59.5" r="4.5" transform="rotate(0,149.5,59.5)"/><circle cx="149.5" cy="95.5" r="4.5" transform="rotate(0,149.5,95.5)"/><circle cx="149.5" cy="113.5" r="4.5" transform="rotate(0,149.5,113.5)"/><circle cx="149.5" cy="122.5" r="4.5" transform="rotate(0,149.5,122.5)"/><circle cx="149.5" cy="140.5" r="4.5" transform="rotate(0,149.5,140.5)"/><circle cx="149.5" cy="149.5" r="4.5" transform="rotate(0,149.5,149.5)"/><circle cx="149.5" cy="176.5" r="4.5" transform="rotate(0,149.5,176.5)"/><circle cx="149.5" cy="194.5" r="4.5" transform="rotate(0,149.5,194.5)"/><circle cx="149.5" cy="221.5" r="4.5" transform="rotate(0,149.5,221.5)"/><circle cx="149.5" cy="230.5" r="4.5" transform="rotate(0,149.5,230.5)"/><circle cx="149.5" cy="239.5" r="4.5" transform="rotate(0,149.5,239.5)"/><circle cx="149.5" cy="257.5" r="4.5" transform="rotate(0,149.5,257.5)"/><circle cx="149.5" cy="266.5" r="4.5" transform="rotate(0,149.5,266.5)"/><circle cx="149.5" cy="275.5" r="4.5" transform="rotate(0,149.5,275.5)"/><circle cx="149.5" cy="284.5" r="4.5" transform="rotate(0,149.5,284.5)"/><circle cx="158.5" cy="5.5" r="4.5" transform="rotate(0,158.5,5.5)"/><circle cx="158.5" cy="41.5" r="4.5" transform="rotate(0,158.5,41.5)"/><circle cx="158.5" cy="50.5" r="4.5" transform="rotate(0,158.5,50.5)"/><circle cx="158.5" cy="86.5" r="4.5" transform="rotate(0,158.5,86.5)"/><circle cx="158.5" cy="131.5" r="4.5" transform="rotate(0,158.5,131.5)"/><circle cx="158.5" cy="158.5" r="4.5" transform="rotate(0,158.5,158.5)"/><circle cx="158.5" cy="176.5" r="4.5" transform="rotate(0,158.5,176.5)"/><circle cx="158.5" cy="185.5" r="4.5" transform="rotate(0,158.5,185.5)"/><circle cx="158.5" cy="203.5" r="4.5" transform="rotate(0,158.5,203.5)"/><circle cx="158.5" cy="212.5" r="4.5" transform="rotate(0,158.5,212.5)"/><circle cx="158.5" cy="230.5" r="4.5" transform="rotate(0,158.5,230.5)"/><circle cx="158.5" cy="239.5" r="4.5" transform="rotate(0,158.5,239.5)"/><circle cx="158.5" cy="257.5" r="4.5" transform="rotate(0,158.5,257.5)"/><circle cx="158.5" cy="275.5" r="4.5" transform="rotate(0,158.5,275.5)"/><circle cx="158.5" cy="284.5" r="4.5" transform="rotate(0,158.5,284.5)"/><circle cx="167.5" cy="5.5" r="4.5" transform="rotate(0,167.5,5.5)"/><circle cx="167.5" cy="14.5" r="4.5" transform="rotate(0,167.5,14.5)"/><circle cx="167.5" cy="23.5" r="4.5" transform="rotate(0,167.5,23.5)"/><circle cx="167.5" cy="32.5" r="4.5" transform="rotate(0,167.5,32.5)"/><circle cx="167.5" cy="41.5" r="4.5" transform="rotate(0,167.5,41.5)"/><circle cx="167.5" cy="50.5" r="4.5" transform="rotate(0,167.5,50.5)"/><circle cx="167.5" cy="59.5" r="4.5" transform="rotate(0,167.5,59.5)"/><circle cx="167.5" cy="68.5" r="4.5" transform="rotate(0,167.5,68.5)"/><circle cx="167.5" cy="77.5" r="4.5" transform="rotate(0,167.5,77.5)"/><circle cx="167.5" cy="140.5" r="4.5" transform="rotate(0,167.5,140.5)"/><circle cx="167.5" cy="149.5" r="4.5" transform="rotate(0,167.5,149.5)"/><circle cx="167.5" cy="167.5" r="4.5" transform="rotate(0,167.5,167.5)"/><circle cx="167.5" cy="176.5" r="4.5" transform="rotate(0,167.5,176.5)"/><circle cx="167.5" cy="230.5" r="4.5" transform="rotate(0,167.5,230.5)"/><circle cx="167.5" cy="239.5" r="4.5" transform="rotate(0,167.5,239.5)"/><circle cx="167.5" cy="275.5" r="4.5" transform="rotate(0,167.5,275.5)"/><circle cx="167.5" cy="284.5" r="4.5" transform="rotate(0,167.5,284.5)"/><circle cx="176.5" cy="14.5" r="4.5" transform="rotate(0,176.5,14.5)"/><circle cx="176.5" cy="41.5" r="4.5" transform="rotate(0,176.5,41.5)"/><circle cx="176.5" cy="68.5" r="4.5" transform="rotate(0,176.5,68.5)"/><circle cx="176.5" cy="86.5" r="4.5" transform="rotate(0,176.5,86.5)"/><circle cx="176.5" cy="95.5" r="4.5" transform="rotate(0,176.5,95.5)"/><circle cx="176.5" cy="122.5" r="4.5" transform="rotate(0,176.5,122.5)"/><circle cx="176.5" cy="140.5" r="4.5" transform="rotate(0,176.5,140.5)"/><circle cx="176.5" cy="248.5" r="4.5" transform="rotate(0,176.5,248.5)"/><circle cx="176.5" cy="257.5" r="4.5" transform="rotate(0,176.5,257.5)"/><circle cx="176.5" cy="293.5" r="4.5" transform="rotate(0,176.5,293.5)"/><circle cx="185.5" cy="41.5" r="4.5" transform="rotate(0,185.5,41.5)"/><circle cx="185.5" cy="50.5" r="4.5" transform="rotate(0,185.5,50.5)"/><circle cx="185.5" cy="59.5" r="4.5" transform="rotate(0,185.5,59.5)"/><circle cx="185.5" cy="68.5" r="4.5" transform="rotate(0,185.5,68.5)"/><circle cx="185.5" cy="77.5" r="4.5" transform="rotate(0,185.5,77.5)"/><circle cx="185.5" cy="86.5" r="4.5" transform="rotate(0,185.5,86.5)"/><circle cx="185.5" cy="95.5" r="4.5" transform="rotate(0,185.5,95.5)"/><circle cx="185.5" cy="167.5" r="4.5" transform="rotate(0,185.5,167.5)"/><circle cx="185.5" cy="176.5" r="4.5" transform="rotate(0,185.5,176.5)"/><circle cx="185.5" cy="185.5" r="4.5" transform="rotate(0,185.5,185.5)"/><circle cx="185.5" cy="194.5" r="4.5" transform="rotate(0,185.5,194.5)"/><circle cx="185.5" cy="203.5" r="4.5" transform="rotate(0,185.5,203.5)"/><circle cx="185.5" cy="221.5" r="4.5" transform="rotate(0,185.5,221.5)"/><circle cx="185.5" cy="239.5" r="4.5" transform="rotate(0,185.5,239.5)"/><circle cx="185.5" cy="266.5" r="4.5" transform="rotate(0,185.5,266.5)"/><circle cx="185.5" cy="275.5" r="4.5" transform="rotate(0,185.5,275.5)"/><circle cx="185.5" cy="284.5" r="4.5" transform="rotate(0,185.5,284.5)"/><circle cx="185.5" cy="293.5" r="4.5" transform="rotate(0,185.5,293.5)"/><circle cx="194.5" cy="5.5" r="4.5" transform="rotate(0,194.5,5.5)"/><circle cx="194.5" cy="14.5" r="4.5" transform="rotate(0,194.5,14.5)"/><circle cx="194.5" cy="23.5" r="4.5" transform="rotate(0,194.5,23.5)"/><circle cx="194.5" cy="50.5" r="4.5" transform="rotate(0,194.5,50.5)"/><circle cx="194.5" cy="68.5" r="4.5" transform="rotate(0,194.5,68.5)"/><circle cx="194.5" cy="86.5" r="4.5" transform="rotate(0,194.5,86.5)"/><circle cx="194.5" cy="95.5" r="4.5" transform="rotate(0,194.5,95.5)"/><circle cx="194.5" cy="140.5" r="4.5" transform="rotate(0,194.5,140.5)"/><circle cx="194.5" cy="149.5" r="4.5" transform="rotate(0,194.5,149.5)"/><circle cx="194.5" cy="158.5" r="4.5" transform="rotate(0,194.5,158.5)"/><circle cx="194.5" cy="221.5" r="4.5" transform="rotate(0,194.5,221.5)"/><circle cx="194.5" cy="275.5" r="4.5" transform="rotate(0,194.5,275.5)"/><circle cx="194.5" cy="293.5" r="4.5" transform="rotate(0,194.5,293.5)"/><circle cx="203.5" cy="23.5" r="4.5" transform="rotate(0,203.5,23.5)"/><circle cx="203.5" cy="41.5" r="4.5" transform="rotate(0,203.5,41.5)"/><circle cx="203.5" cy="50.5" r="4.5" transform="rotate(0,203.5,50.5)"/><circle cx="203.5" cy="59.5" r="4.5" transform="rotate(0,203.5,59.5)"/><circle cx="203.5" cy="77.5" r="4.5" transform="rotate(0,203.5,77.5)"/><circle cx="203.5" cy="86.5" r="4.5" transform="rotate(0,203.5,86.5)"/><circle cx="203.5" cy="95.5" r="4.5" transform="rotate(0,203.5,95.5)"/><circle cx="203.5" cy="104.5" r="4.5" transform="rotate(0,203.5,104.5)"/><circle cx="203.5" cy="122.5" r="4.5" transform="rotate(0,203.5,122.5)"/><circle cx="203.5" cy="140.5" r="4.5" transform="rotate(0,203.5,140.5)"/><circle cx="203.5" cy="176.5" r="4.5" transform="rotate(0,203.5,176.5)"/><circle cx="203.5" cy="185.5" r="4.5" transform="rotate(0,203.5,185.5)"/><circle cx="203.5" cy="203.5" r="4.5" transform="rotate(0,203.5,203.5)"/><circle cx="203.5" cy="212.5" r="4.5" transform="rotate(0,203.5,212.5)"/><circle cx="203.5" cy="221.5" r="4.5" transform="rotate(0,203.5,221.5)"/><circle cx="203.5" cy="239.5" r="4.5" transform="rotate(0,203.5,239.5)"/><circle cx="203.5" cy="257.5" r="4.5" transform="rotate(0,203.5,257.5)"/><circle cx="203.5" cy="266.5" r="4.5" transform="rotate(0,203.5,266.5)"/><circle cx="203.5" cy="275.5" r="4.5" transform="rotate(0,203.5,275.5)"/><circle cx="203.5" cy="284.5" r="4.5" transform="rotate(0,203.5,284.5)"/><circle cx="203.5" cy="293.5" r="4.5" transform="rotate(0,203.5,293.5)"/><circle cx="212.5" cy="14.5" r="4.5" transform="rotate(0,212.5,14.5)"/><circle cx="212.5" cy="32.5" r="4.5" transform="rotate(0,212.5,32.5)"/><circle cx="212.5" cy="50.5" r="4.5" transform="rotate(0,212.5,50.5)"/><circle cx="212.5" cy="95.5" r="4.5" transform="rotate(0,212.5,95.5)"/><circle cx="212.5" cy="122.5" r="4.5" transform="rotate(0,212.5,122.5)"/><circle cx="212.5" cy="140.5" r="4.5" transform="rotate(0,212.5,140.5)"/><circle cx="212.5" cy="167.5" r="4.5" transform="rotate(0,212.5,167.5)"/><circle cx="212.5" cy="176.5" r="4.5" transform="rotate(0,212.5,176.5)"/><circle cx="212.5" cy="230.5" r="4.5" transform="rotate(0,212.5,230.5)"/><circle cx="212.5" cy="248.5" r="4.5" transform="rotate(0,212.5,248.5)"/><circle cx="212.5" cy="284.5" r="4.5" transform="rotate(0,212.5,284.5)"/><circle cx="212.5" cy="293.5" r="4.5" transform="rotate(0,212.5,293.5)"/><circle cx="221.5" cy="5.5" r="4.5" transform="rotate(0,221.5,5.5)"/><circle cx="221.5" cy="23.5" r="4.5" transform="rotate(0,221.5,23.5)"/><circle cx="221.5" cy="32.5" r="4.5" transform="rotate(0,221.5,32.5)"/><circle cx="221.5" cy="50.5" r="4.5" transform="rotate(0,221.5,50.5)"/><circle cx="221.5" cy="59.5" r="4.5" transform="rotate(0,221.5,59.5)"/><circle cx="221.5" cy="68.5" r="4.5" transform="rotate(0,221.5,68.5)"/><circle cx="221.5" cy="77.5" r="4.5" transform="rotate(0,221.5,77.5)"/><circle cx="221.5" cy="86.5" r="4.5" transform="rotate(0,221.5,86.5)"/><circle cx="221.5" cy="95.5" r="4.5" transform="rotate(0,221.5,95.5)"/><circle cx="221.5" cy="104.5" r="4.5" transform="rotate(0,221.5,104.5)"/><circle cx="221.5" cy="113.5" r="4.5" transform="rotate(0,221.5,113.5)"/><circle cx="221.5" cy="149.5" r="4.5" transform="rotate(0,221.5,149.5)"/><circle cx="221.5" cy="158.5" r="4.5" transform="rotate(0,221.5,158.5)"/><circle cx="221.5" cy="176.5" r="4.5" transform="rotate(0,221.5,176.5)"/><circle cx="221.5" cy="185.5" r="4.5" transform="rotate(0,221.5,185.5)"/><circle cx="221.5" cy="203.5" r="4.5" transform="rotate(0,221.5,203.5)"/><circle cx="221.5" cy="221.5" r="4.5" transform="rotate(0,221.5,221.5)"/><circle cx="221.5" cy="230.5" r="4.5" transform="rotate(0,221.5,230.5)"/><circle cx="221.5" cy="239.5" r="4.5" transform="rotate(0,221.5,239.5)"/><circle cx="221.5" cy="248.5" r="4.5" transform="rotate(0,221.5,248.5)"/><circle cx="221.5" cy="257.5" r="4.5" transform="rotate(0,221.5,257.5)"/><circle cx="221.5" cy="284.5" r="4.5" transform="rotate(0,221.5,284.5)"/><circle cx="221.5" cy="293.5" r="4.5" transform="rotate(0,221.5,293.5)"/><circle cx="230.5" cy="77.5" r="4.5" transform="rotate(0,230.5,77.5)"/><circle cx="230.5" cy="86.5" r="4.5" transform="rotate(0,230.5,86.5)"/><circle cx="230.5" cy="95.5" r="4.5" transform="rotate(0,230.5,95.5)"/><circle cx="230.5" cy="104.5" r="4.5" transform="rotate(0,230.5,104.5)"/><circle cx="230.5" cy="113.5" r="4.5" transform="rotate(0,230.5,113.5)"/><circle cx="230.5" cy="131.5" r="4.5" transform="rotate(0,230.5,131.5)"/><circle cx="230.5" cy="140.5" r="4.5" transform="rotate(0,230.5,140.5)"/><circle cx="230.5" cy="149.5" r="4.5" transform="rotate(0,230.5,149.5)"/><circle cx="230.5" cy="167.5" r="4.5" transform="rotate(0,230.5,167.5)"/><circle cx="230.5" cy="176.5" r="4.5" transform="rotate(0,230.5,176.5)"/><circle cx="230.5" cy="194.5" r="4.5" transform="rotate(0,230.5,194.5)"/><circle cx="230.5" cy="212.5" r="4.5" transform="rotate(0,230.5,212.5)"/><circle cx="230.5" cy="221.5" r="4.5" transform="rotate(0,230.5,221.5)"/><circle cx="230.5" cy="257.5" r="4.5" transform="rotate(0,230.5,257.5)"/><circle cx="230.5" cy="275.5" r="4.5" transform="rotate(0,230.5,275.5)"/><circle cx="230.5" cy="284.5" r="4.5" transform="rotate(0,230.5,284.5)"/><circle cx="239.5" cy="77.5" r="4.5" transform="rotate(0,239.5,77.5)"/><circle cx="239.5" cy="86.5" r="4.5" transform="rotate(0,239.5,86.5)"/><circle cx="239.5" cy="104.5" r="4.5" transform="rotate(0,239.5,104.5)"/><circle cx="239.5" cy="113.5" r="4.5" transform="rotate(0,239.5,113.5)"/><circle cx="239.5" cy="122.5" r="4.5" transform="rotate(0,239.5,122.5)"/><circle cx="239.5" cy="149.5" r="4.5" transform="rotate(0,239.5,149.5)"/><circle cx="239.5" cy="185.5" r="4.5" transform="rotate(0,239.5,185.5)"/><circle cx="239.5" cy="194.5" r="4.5" transform="rotate(0,239.5,194.5)"/><circle cx="239.5" cy="212.5" r="4.5" transform="rotate(0,239.5,212.5)"/><circle cx="239.5" cy="221.5" r="4.5" transform="rotate(0,239.5,221.5)"/><circle cx="239.5" cy="239.5" r="4.5" transform="rotate(0,239.5,239.5)"/><circle cx="239.5" cy="257.5" r="4.5" transform="rotate(0,239.5,257.5)"/><circle cx="239.5" cy="266.5" r="4.5" transform="rotate(0,239.5,266.5)"/><circle cx="239.5" cy="275.5" r="4.5" transform="rotate(0,239.5,275.5)"/><circle cx="248.5" cy="131.5" r="4.5" transform="rotate(0,248.5,131.5)"/><circle cx="248.5" cy="149.5" r="4.5" transform="rotate(0,248.5,149.5)"/><circle cx="248.5" cy="158.5" r="4.5" transform="rotate(0,248.5,158.5)"/><circle cx="248.5" cy="176.5" r="4.5" transform="rotate(0,248.5,176.5)"/><circle cx="248.5" cy="212.5" r="4.5" transform="rotate(0,248.5,212.5)"/><circle cx="248.5" cy="221.5" r="4.5" transform="rotate(0,248.5,221.5)"/><circle cx="248.5" cy="257.5" r="4.5" transform="rotate(0,248.5,257.5)"/><circle cx="248.5" cy="266.5" r="4.5" transform="rotate(0,248.5,266.5)"/><circle cx="248.5" cy="275.5" r="4.5" transform="rotate(0,248.5,275.5)"/><circle cx="248.5" cy="284.5" r="4.5" transform="rotate(0,248.5,284.5)"/><circle cx="248.5" cy="293.5" r="4.5" transform="rotate(0,248.5,293.5)"/><circle cx="257.5" cy="86.5" r="4.5" transform="rotate(0,257.5,86.5)"/><circle cx="257.5" cy="95.5" r="4.5" transform="rotate(0,257.5,95.5)"/><circle cx="257.5" cy="104.5" r="4.5" transform="rotate(0,257.5,104.5)"/><circle cx="257.5" cy="122.5" r="4.5" transform="rotate(0,257.5,122.5)"/><circle cx="257.5" cy="131.5" r="4.5" transform="rotate(0,257.5,131.5)"/><circle cx="257.5" cy="167.5" r="4.5" transform="rotate(0,257.5,167.5)"/><circle cx="257.5" cy="176.5" r="4.5" transform="rotate(0,257.5,176.5)"/><circle cx="257.5" cy="185.5" r="4.5" transform="rotate(0,257.5,185.5)"/><circle cx="257.5" cy="203.5" r="4.5" transform="rotate(0,257.5,203.5)"/><circle cx="257.5" cy="212.5" r="4.5" transform="rotate(0,257.5,212.5)"/><circle cx="257.5" cy="221.5" r="4.5" transform="rotate(0,257.5,221.5)"/><circle cx="257.5" cy="230.5" r="4.5" transform="rotate(0,257.5,230.5)"/><circle cx="257.5" cy="239.5" r="4.5" transform="rotate(0,257.5,239.5)"/><circle cx="257.5" cy="248.5" r="4.5" transform="rotate(0,257.5,248.5)"/><circle cx="257.5" cy="257.5" r="4.5" transform="rotate(0,257.5,257.5)"/><circle cx="257.5" cy="266.5" r="4.5" transform="rotate(0,257.5,266.5)"/><circle cx="257.5" cy="275.5" r="4.5" transform="rotate(0,257.5,275.5)"/><circle cx="257.5" cy="284.5" r="4.5" transform="rotate(0,257.5,284.5)"/><circle cx="266.5" cy="77.5" r="4.5" transform="rotate(0,266.5,77.5)"/><circle cx="266.5" cy="86.5" r="4.5" transform="rotate(0,266.5,86.5)"/><circle cx="266.5" cy="104.5" r="4.5" transform="rotate(0,266.5,104.5)"/><circle cx="266.5" cy="113.5" r="4.5" transform="rotate(0,266.5,113.5)"/><circle cx="266.5" cy="140.5" r="4.5" transform="rotate(0,266.5,140.5)"/><circle cx="266.5" cy="158.5" r="4.5" transform="rotate(0,266.5,158.5)"/><circle cx="266.5" cy="167.5" r="4.5" transform="rotate(0,266.5,167.5)"/><circle cx="266.5" cy="176.5" r="4.5" transform="rotate(0,266.5,176.5)"/><circle cx="266.5" cy="185.5" r="4.5" transform="rotate(0,266.5,185.5)"/><circle cx="266.5" cy="194.5" r="4.5" transform="rotate(0,266.5,194.5)"/><circle cx="266.5" cy="203.5" r="4.5" transform="rotate(0,266.5,203.5)"/><circle cx="266.5" cy="221.5" r="4.5" transform="rotate(0,266.5,221.5)"/><circle cx="266.5" cy="248.5" r="4.5" transform="rotate(0,266.5,248.5)"/><circle cx="266.5" cy="275.5" r="4.5" transform="rotate(0,266.5,275.5)"/><circle cx="275.5" cy="77.5" r="4.5" transform="rotate(0,275.5,77.5)"/><circle cx="275.5" cy="86.5" r="4.5" transform="rotate(0,275.5,86.5)"/><circle cx="275.5" cy="95.5" r="4.5" transform="rotate(0,275.5,95.5)"/><circle cx="275.5" cy="122.5" r="4.5" transform="rotate(0,275.5,122.5)"/><circle cx="275.5" cy="167.5" r="4.5" transform="rotate(0,275.5,167.5)"/><circle cx="275.5" cy="185.5" r="4.5" transform="rotate(0,275.5,185.5)"/><circle cx="275.5" cy="212.5" r="4.5" transform="rotate(0,275.5,212.5)"/><circle cx="275.5" cy="230.5" r="4.5" transform="rotate(0,275.5,230.5)"/><circle cx="275.5" cy="239.5" r="4.5" transform="rotate(0,275.5,239.5)"/><circle cx="275.5" cy="266.5" r="4.5" transform="rotate(0,275.5,266.5)"/><circle cx="284.5" cy="113.5" r="4.5" transform="rotate(0,284.5,113.5)"/><circle cx="284.5" cy="131.5" r="4.5" transform="rotate(0,284.5,131.5)"/><circle cx="284.5" cy="149.5" r="4.5" transform="rotate(0,284.5,149.5)"/><circle cx="284.5" cy="158.5" r="4.5" transform="rotate(0,284.5,158.5)"/><circle cx="284.5" cy="167.5" r="4.5" transform="rotate(0,284.5,167.5)"/><circle cx="284.5" cy="176.5" r="4.5" transform="rotate(0,284.5,176.5)"/><circle cx="284.5" cy="185.5" r="4.5" transform="rotate(0,284.5,185.5)"/><circle cx="284.5" cy="194.5" r="4.5" transform="rotate(0,284.5,194.5)"/><circle cx="284.5" cy="212.5" r="4.5" transform="rotate(0,284.5,212.5)"/><circle cx="284.5" cy="221.5" r="4.5" transform="rotate(0,284.5,221.5)"/><circle cx="284.5" cy="230.5" r="4.5" transform="rotate(0,284.5,230.5)"/><circle cx="284.5" cy="239.5" r="4.5" transform="rotate(0,284.5,239.5)"/><circle cx="284.5" cy="293.5" r="4.5" transform="rotate(0,284.5,293.5)"/><circle cx="293.5" cy="95.5" r="4.5" transform="rotate(0,293.5,95.5)"/><circle cx="293.5" cy="104.5" r="4.5" transform="rotate(0,293.5,104.5)"/><circle cx="293.5" cy="122.5" r="4.5" transform="rotate(0,293.5,122.5)"/><circle cx="293.5" cy="176.5" r="4.5" transform="rotate(0,293.5,176.5)"/><circle cx="293.5" cy="185.5" r="4.5" transform="rotate(0,293.5,185.5)"/><circle cx="293.5" cy="248.5" r="4.5" transform="rotate(0,293.5,248.5)"/><circle cx="293.5" cy="257.5" r="4.5" transform="rotate(0,293.5,257.5)"/></g><g class="corners-square-color-0-0"><path clip-rule="evenodd" d="M 1 1v 63h 63v -63zM 10 10h 45v 45h -45z" transform="rotate(0,32.5,32.5)"/></g><g class="corners-dot-color-0-0"><rect x="19" y="19" width="27" height="27" transform="rotate(0,32.5,32.5)"/></g><g class="corners-square-color-1-0"><path clip-rule="evenodd" d="M 235 1v 63h 63v -63zM 244 10h 45v 45h -45z" transform="rotate(90,266.5,32.5)"/></g><g class="corners-dot-color-1-0"><rect x="253" y="19" width="27" height="27" transform="rotate(90,266.5,32.5)"/></g><g class="corners-square-color-0-1"><path clip-rule="evenodd" d="M 1 235v 63h 63v -63zM 10 244h 45v 45h -45z" transform="rotate(-90,32.5,266.5)"/></g><g class="corners-dot-color-0-1"><rect x="19" y="253" width="27" height="27" transform="rotate(-90,32.5,266.5)"/></g></svg></g></svg></svg>